<svg xmlns="http://www.w3.org/2000/svg" width="181" height="34" viewBox="0 0 181 34" fill="none">
<path d="M45.056 13.28C45.056 15.632 46.472 17.168 49.16 17.816L52.064 18.536C53.912 18.968 54.776 19.976 54.776 21.512C54.776 23.48 53.168 24.704 50.648 24.704C48.296 24.704 46.712 23.528 46.616 21.728H44.84C45.056 24.536 47.312 26.288 50.648 26.288C54.2 26.288 56.504 24.392 56.504 21.416C56.504 19.088 55.112 17.552 52.424 16.904L49.472 16.184C47.672 15.728 46.784 14.768 46.784 13.256C46.784 11.312 48.368 10.064 50.792 10.064C52.952 10.064 54.272 11.168 54.464 13.112H56.216C55.952 10.232 53.912 8.504 50.816 8.504C47.36 8.504 45.056 10.4 45.056 13.28ZM59.2514 31.064H60.9074V23.768C61.7234 25.448 63.2834 26.288 65.2514 26.288C68.6834 26.288 70.6274 23.648 70.6274 20.144C70.6274 16.64 68.6114 14.072 65.2514 14.072C63.3074 14.072 61.6754 14.936 60.8594 16.736L60.6914 14.384H59.2514V31.064ZM60.9314 20.192C60.9314 17.504 62.4194 15.584 64.9634 15.584C67.4834 15.584 68.9474 17.504 68.9474 20.192C68.9474 22.856 67.4834 24.8 64.9634 24.8C62.4194 24.8 60.9314 22.856 60.9314 20.192ZM78.1391 26.288C80.8751 26.288 82.6751 24.968 83.2991 22.52H81.7151C81.2831 24.056 80.0591 24.872 78.1631 24.872C75.6671 24.872 74.1791 23.24 74.0591 20.408H83.2991V19.592C83.2991 16.304 81.1631 14.072 78.0191 14.072C74.7071 14.072 72.4511 16.568 72.4511 20.192C72.4511 23.84 74.7311 26.288 78.1391 26.288ZM78.0191 15.488C80.2031 15.488 81.6431 16.976 81.6431 19.208H74.1071C74.3951 16.928 75.8351 15.488 78.0191 15.488ZM85.1308 20.216C85.1308 23.864 87.3628 26.288 90.6508 26.288C93.2908 26.288 95.3548 24.728 95.9068 22.352H94.2268C93.7708 23.84 92.3788 24.8 90.6508 24.8C88.2988 24.8 86.7628 22.952 86.7628 20.192C86.7628 17.336 88.4188 15.536 90.7708 15.536C92.3788 15.536 93.7708 16.424 94.2028 18.032H95.8588C95.4028 15.632 93.4348 14.072 90.7468 14.072C87.3628 14.072 85.1308 16.568 85.1308 20.216ZM101.08 26V15.776H103.408V14.384H101.08V10.712H99.4475V14.384H97.1195V15.776H99.4475V26H101.08ZM110.319 26.288C113.055 26.288 114.855 24.968 115.479 22.52H113.895C113.463 24.056 112.239 24.872 110.343 24.872C107.847 24.872 106.359 23.24 106.239 20.408H115.479V19.592C115.479 16.304 113.343 14.072 110.199 14.072C106.887 14.072 104.631 16.568 104.631 20.192C104.631 23.84 106.911 26.288 110.319 26.288ZM110.199 15.488C112.383 15.488 113.823 16.976 113.823 19.208H106.287C106.575 16.928 108.015 15.488 110.199 15.488ZM124.198 14.24C123.79 14.144 123.478 14.12 123.118 14.12C121.486 14.12 120.262 14.936 119.806 16.184L119.686 14.384H118.126V26H119.782V19.376C119.782 17.168 121.15 15.728 123.286 15.728H124.198V14.24ZM135.144 26V18.872H140.16L143.664 26H145.584L141.912 18.584C144.12 17.984 145.416 16.256 145.416 13.784C145.416 10.736 143.304 8.816 139.824 8.816H133.416V26H135.144ZM135.144 10.376H139.824C142.176 10.376 143.64 11.6 143.64 13.832C143.64 16.016 142.248 17.312 139.872 17.312H135.144V10.376ZM146.748 20.192C146.748 23.72 149.244 26.288 152.652 26.288C156.06 26.288 158.556 23.72 158.556 20.192C158.556 16.64 156.06 14.072 152.652 14.072C149.244 14.072 146.748 16.64 146.748 20.192ZM148.428 20.168C148.428 17.48 150.156 15.56 152.652 15.56C155.124 15.56 156.876 17.48 156.876 20.168C156.876 22.904 155.124 24.8 152.652 24.8C150.156 24.8 148.428 22.904 148.428 20.168ZM160.221 22.736C160.221 24.896 161.853 26.288 164.469 26.288C167.109 26.288 168.885 24.92 168.885 22.832C168.885 21.152 167.973 20.216 165.957 19.712L163.965 19.208C162.693 18.896 162.069 18.272 162.069 17.384C162.069 16.136 162.981 15.44 164.613 15.44C166.173 15.44 167.109 16.232 167.157 17.576H168.765C168.693 15.416 167.109 14.072 164.661 14.072C162.165 14.072 160.461 15.368 160.461 17.408C160.461 18.992 161.445 20.048 163.461 20.552L165.453 21.056C166.821 21.392 167.301 21.944 167.301 22.904C167.301 24.152 166.245 24.92 164.445 24.92C162.813 24.92 161.805 24.08 161.805 22.736H160.221ZM170.627 22.736C170.627 24.896 172.259 26.288 174.875 26.288C177.515 26.288 179.291 24.92 179.291 22.832C179.291 21.152 178.379 20.216 176.363 19.712L174.371 19.208C173.099 18.896 172.475 18.272 172.475 17.384C172.475 16.136 173.387 15.44 175.019 15.44C176.579 15.44 177.515 16.232 177.563 17.576H179.171C179.099 15.416 177.515 14.072 175.067 14.072C172.571 14.072 170.867 15.368 170.867 17.408C170.867 18.992 171.851 20.048 173.867 20.552L175.859 21.056C177.227 21.392 177.707 21.944 177.707 22.904C177.707 24.152 176.651 24.92 174.851 24.92C173.219 24.92 172.211 24.08 172.211 22.736H170.627Z" fill="#DAC5A6"/>
<g clip-path="url(#clip0_112_931)">
<path d="M2.66669 27.6666H29.3334V30.3333H2.66669V27.6666ZM5.33335 17H8.00002V26.3333H5.33335V17ZM12 17H14.6667V26.3333H12V17ZM17.3334 17H20V26.3333H17.3334V17ZM24 17H26.6667V26.3333H24V17ZM2.66669 10.3333L16 3.66663L29.3334 10.3333V15.6666H2.66669V10.3333ZM5.33335 11.9813V13H26.6667V11.9813L16 6.64796L5.33335 11.9813ZM16 11.6666C15.6464 11.6666 15.3073 11.5261 15.0572 11.2761C14.8072 11.0261 14.6667 10.6869 14.6667 10.3333C14.6667 9.97967 14.8072 9.64053 15.0572 9.39048C15.3073 9.14044 15.6464 8.99996 16 8.99996C16.3536 8.99996 16.6928 9.14044 16.9428 9.39048C17.1929 9.64053 17.3334 9.97967 17.3334 10.3333C17.3334 10.6869 17.1929 11.0261 16.9428 11.2761C16.6928 11.5261 16.3536 11.6666 16 11.6666Z" fill="#DAC5A6"/>
</g>
<defs>
<clipPath id="clip0_112_931">
<rect width="32" height="32" fill="white" transform="translate(0 1)"/>
</clipPath>
</defs>
</svg>